<mxfile host="app.diagrams.net" modified="2024-04-28T20:44:11.755Z" agent="Mozilla/5.0 (Windows NT 10.0; Win64; x64) AppleWebKit/537.36 (KHTML, like Gecko) Chrome/124.0.0.0 Safari/537.36" etag="r6YF6vvxCPgz8yQ0xHip" version="24.3.1" type="device">
  <diagram id="R2lEEEUBdFMjLlhIrx00" name="Page-1">
    <mxGraphModel dx="2759" dy="2064" grid="1" gridSize="10" guides="1" tooltips="1" connect="1" arrows="1" fold="1" page="1" pageScale="1" pageWidth="850" pageHeight="1100" math="0" shadow="0" extFonts="Permanent Marker^https://fonts.googleapis.com/css?family=Permanent+Marker">
      <root>
        <mxCell id="0" />
        <mxCell id="1" parent="0" />
        <mxCell id="z_DrBb2-2Ag20W_lwLPA-1" value="Nyugta" style="rounded=0;whiteSpace=wrap;html=1;fontSize=18;" parent="1" vertex="1">
          <mxGeometry x="-20" y="80" width="120" height="60" as="geometry" />
        </mxCell>
        <mxCell id="z_DrBb2-2Ag20W_lwLPA-2" value="Résztvevő" style="rounded=0;whiteSpace=wrap;html=1;fontSize=18;" parent="1" vertex="1">
          <mxGeometry x="425" y="280" width="120" height="60" as="geometry" />
        </mxCell>
        <mxCell id="z_DrBb2-2Ag20W_lwLPA-3" value="Csoport" style="rounded=0;whiteSpace=wrap;html=1;fontSize=18;" parent="1" vertex="1">
          <mxGeometry x="760" y="120" width="120" height="60" as="geometry" />
        </mxCell>
        <mxCell id="z_DrBb2-2Ag20W_lwLPA-4" value="Termék" style="rounded=0;whiteSpace=wrap;html=1;fontSize=18;" parent="1" vertex="1">
          <mxGeometry x="-20" y="410" width="120" height="60" as="geometry" />
        </mxCell>
        <mxCell id="z_DrBb2-2Ag20W_lwLPA-5" value="Felhasználó" style="rounded=0;whiteSpace=wrap;html=1;fontSize=18;" parent="1" vertex="1">
          <mxGeometry x="425" y="-40" width="120" height="60" as="geometry" />
        </mxCell>
        <mxCell id="z_DrBb2-2Ag20W_lwLPA-6" value="E-mail" style="ellipse;whiteSpace=wrap;html=1;fontSize=18;" parent="1" vertex="1">
          <mxGeometry x="320" y="-150" width="120" height="80" as="geometry" />
        </mxCell>
        <mxCell id="z_DrBb2-2Ag20W_lwLPA-8" style="rounded=0;orthogonalLoop=1;jettySize=auto;html=1;endArrow=none;endFill=0;fontSize=18;" parent="1" source="z_DrBb2-2Ag20W_lwLPA-7" target="z_DrBb2-2Ag20W_lwLPA-5" edge="1">
          <mxGeometry relative="1" as="geometry" />
        </mxCell>
        <mxCell id="z_DrBb2-2Ag20W_lwLPA-7" value="Jelszó" style="ellipse;whiteSpace=wrap;html=1;fontSize=18;" parent="1" vertex="1">
          <mxGeometry x="450" y="-230" width="120" height="80" as="geometry" />
        </mxCell>
        <mxCell id="z_DrBb2-2Ag20W_lwLPA-10" style="rounded=0;orthogonalLoop=1;jettySize=auto;html=1;endArrow=none;endFill=0;fontSize=18;" parent="1" source="z_DrBb2-2Ag20W_lwLPA-6" target="z_DrBb2-2Ag20W_lwLPA-5" edge="1">
          <mxGeometry relative="1" as="geometry">
            <mxPoint x="564" y="-151" as="sourcePoint" />
            <mxPoint x="589" y="-80" as="targetPoint" />
          </mxGeometry>
        </mxCell>
        <mxCell id="z_DrBb2-2Ag20W_lwLPA-11" value="Név" style="ellipse;whiteSpace=wrap;html=1;fontSize=18;" parent="1" vertex="1">
          <mxGeometry x="-170" y="350" width="120" height="80" as="geometry" />
        </mxCell>
        <mxCell id="z_DrBb2-2Ag20W_lwLPA-12" value="Ár" style="ellipse;whiteSpace=wrap;html=1;fontSize=18;" parent="1" vertex="1">
          <mxGeometry x="-20" y="530" width="120" height="80" as="geometry" />
        </mxCell>
        <mxCell id="z_DrBb2-2Ag20W_lwLPA-14" value="Darab" style="ellipse;whiteSpace=wrap;html=1;fontSize=18;" parent="1" vertex="1">
          <mxGeometry x="-170" y="490" width="120" height="80" as="geometry" />
        </mxCell>
        <mxCell id="z_DrBb2-2Ag20W_lwLPA-16" style="rounded=0;orthogonalLoop=1;jettySize=auto;html=1;endArrow=none;endFill=0;fontSize=18;" parent="1" source="z_DrBb2-2Ag20W_lwLPA-12" target="z_DrBb2-2Ag20W_lwLPA-4" edge="1">
          <mxGeometry relative="1" as="geometry">
            <mxPoint x="-106" y="369" as="sourcePoint" />
            <mxPoint x="-81" y="440" as="targetPoint" />
          </mxGeometry>
        </mxCell>
        <mxCell id="z_DrBb2-2Ag20W_lwLPA-17" style="rounded=0;orthogonalLoop=1;jettySize=auto;html=1;endArrow=none;endFill=0;fontSize=18;" parent="1" source="z_DrBb2-2Ag20W_lwLPA-11" target="z_DrBb2-2Ag20W_lwLPA-4" edge="1">
          <mxGeometry relative="1" as="geometry">
            <mxPoint x="-96" y="379" as="sourcePoint" />
            <mxPoint x="-71" y="450" as="targetPoint" />
          </mxGeometry>
        </mxCell>
        <mxCell id="z_DrBb2-2Ag20W_lwLPA-19" style="rounded=0;orthogonalLoop=1;jettySize=auto;html=1;endArrow=none;endFill=0;fontSize=18;" parent="1" source="z_DrBb2-2Ag20W_lwLPA-14" target="z_DrBb2-2Ag20W_lwLPA-4" edge="1">
          <mxGeometry relative="1" as="geometry">
            <mxPoint x="-76" y="399" as="sourcePoint" />
            <mxPoint x="-51" y="470" as="targetPoint" />
          </mxGeometry>
        </mxCell>
        <mxCell id="z_DrBb2-2Ag20W_lwLPA-21" value="Bolt" style="ellipse;whiteSpace=wrap;html=1;fontSize=18;" parent="1" vertex="1">
          <mxGeometry x="-240" y="160" width="120" height="80" as="geometry" />
        </mxCell>
        <mxCell id="z_DrBb2-2Ag20W_lwLPA-22" value="Vásárlás dátuma" style="ellipse;whiteSpace=wrap;html=1;fontSize=18;" parent="1" vertex="1">
          <mxGeometry x="-190" y="60" width="120" height="80" as="geometry" />
        </mxCell>
        <mxCell id="z_DrBb2-2Ag20W_lwLPA-23" style="rounded=0;orthogonalLoop=1;jettySize=auto;html=1;endArrow=none;endFill=0;fontSize=18;" parent="1" source="z_DrBb2-2Ag20W_lwLPA-1" target="z_DrBb2-2Ag20W_lwLPA-22" edge="1">
          <mxGeometry relative="1" as="geometry">
            <mxPoint x="-196" y="19" as="sourcePoint" />
            <mxPoint x="-171" y="90" as="targetPoint" />
          </mxGeometry>
        </mxCell>
        <mxCell id="z_DrBb2-2Ag20W_lwLPA-24" style="rounded=0;orthogonalLoop=1;jettySize=auto;html=1;endArrow=none;endFill=0;fontSize=18;" parent="1" source="z_DrBb2-2Ag20W_lwLPA-1" target="z_DrBb2-2Ag20W_lwLPA-21" edge="1">
          <mxGeometry relative="1" as="geometry">
            <mxPoint x="-186" y="29" as="sourcePoint" />
            <mxPoint x="-161" y="100" as="targetPoint" />
          </mxGeometry>
        </mxCell>
        <mxCell id="z_DrBb2-2Ag20W_lwLPA-25" value="Név" style="ellipse;whiteSpace=wrap;html=1;fontSize=18;" parent="1" vertex="1">
          <mxGeometry x="410" y="400" width="120" height="80" as="geometry" />
        </mxCell>
        <mxCell id="z_DrBb2-2Ag20W_lwLPA-26" value="Név" style="ellipse;whiteSpace=wrap;html=1;fontSize=18;" parent="1" vertex="1">
          <mxGeometry x="780" y="230" width="120" height="80" as="geometry" />
        </mxCell>
        <mxCell id="z_DrBb2-2Ag20W_lwLPA-27" value="Id" style="ellipse;whiteSpace=wrap;html=1;fontSize=18;" parent="1" vertex="1">
          <mxGeometry x="-180" y="-40" width="120" height="80" as="geometry" />
        </mxCell>
        <mxCell id="z_DrBb2-2Ag20W_lwLPA-28" value="Id" style="ellipse;whiteSpace=wrap;html=1;fontSize=18;" parent="1" vertex="1">
          <mxGeometry x="560" y="360" width="120" height="80" as="geometry" />
        </mxCell>
        <mxCell id="z_DrBb2-2Ag20W_lwLPA-29" value="Id" style="ellipse;whiteSpace=wrap;html=1;fontSize=18;" parent="1" vertex="1">
          <mxGeometry x="910" y="160" width="120" height="80" as="geometry" />
        </mxCell>
        <mxCell id="z_DrBb2-2Ag20W_lwLPA-30" style="rounded=0;orthogonalLoop=1;jettySize=auto;html=1;endArrow=none;endFill=0;fontSize=18;" parent="1" source="z_DrBb2-2Ag20W_lwLPA-1" target="z_DrBb2-2Ag20W_lwLPA-27" edge="1">
          <mxGeometry relative="1" as="geometry">
            <mxPoint x="83" y="-20" as="sourcePoint" />
            <mxPoint x="124" y="-44" as="targetPoint" />
          </mxGeometry>
        </mxCell>
        <mxCell id="z_DrBb2-2Ag20W_lwLPA-31" style="rounded=0;orthogonalLoop=1;jettySize=auto;html=1;endArrow=none;endFill=0;fontSize=18;" parent="1" source="z_DrBb2-2Ag20W_lwLPA-2" target="z_DrBb2-2Ag20W_lwLPA-28" edge="1">
          <mxGeometry relative="1" as="geometry">
            <mxPoint x="593" y="110" as="sourcePoint" />
            <mxPoint x="634" y="86" as="targetPoint" />
          </mxGeometry>
        </mxCell>
        <mxCell id="z_DrBb2-2Ag20W_lwLPA-32" style="rounded=0;orthogonalLoop=1;jettySize=auto;html=1;endArrow=none;endFill=0;fontSize=18;" parent="1" source="z_DrBb2-2Ag20W_lwLPA-3" target="z_DrBb2-2Ag20W_lwLPA-26" edge="1">
          <mxGeometry relative="1" as="geometry">
            <mxPoint x="760" y="308" as="sourcePoint" />
            <mxPoint x="837" y="279" as="targetPoint" />
          </mxGeometry>
        </mxCell>
        <mxCell id="z_DrBb2-2Ag20W_lwLPA-33" style="rounded=0;orthogonalLoop=1;jettySize=auto;html=1;endArrow=none;endFill=0;fontSize=18;" parent="1" source="z_DrBb2-2Ag20W_lwLPA-3" target="z_DrBb2-2Ag20W_lwLPA-29" edge="1">
          <mxGeometry relative="1" as="geometry">
            <mxPoint x="770" y="318" as="sourcePoint" />
            <mxPoint x="847" y="289" as="targetPoint" />
          </mxGeometry>
        </mxCell>
        <mxCell id="z_DrBb2-2Ag20W_lwLPA-34" style="rounded=0;orthogonalLoop=1;jettySize=auto;html=1;endArrow=none;endFill=0;fontSize=18;" parent="1" source="z_DrBb2-2Ag20W_lwLPA-2" target="z_DrBb2-2Ag20W_lwLPA-25" edge="1">
          <mxGeometry relative="1" as="geometry">
            <mxPoint x="790" y="238" as="sourcePoint" />
            <mxPoint x="867" y="209" as="targetPoint" />
          </mxGeometry>
        </mxCell>
        <mxCell id="z_DrBb2-2Ag20W_lwLPA-36" value="Része" style="shape=rhombus;perimeter=rhombusPerimeter;whiteSpace=wrap;html=1;align=center;fontSize=18;" parent="1" vertex="1">
          <mxGeometry x="590" y="205" width="135" height="75" as="geometry" />
        </mxCell>
        <mxCell id="z_DrBb2-2Ag20W_lwLPA-37" style="rounded=0;orthogonalLoop=1;jettySize=auto;html=1;endArrow=none;endFill=0;fontSize=18;" parent="1" source="z_DrBb2-2Ag20W_lwLPA-36" target="z_DrBb2-2Ag20W_lwLPA-2" edge="1">
          <mxGeometry relative="1" as="geometry">
            <mxPoint x="640" y="544" as="sourcePoint" />
            <mxPoint x="721" y="536" as="targetPoint" />
          </mxGeometry>
        </mxCell>
        <mxCell id="z_DrBb2-2Ag20W_lwLPA-40" value="Fizet érte" style="shape=rhombus;perimeter=rhombusPerimeter;whiteSpace=wrap;html=1;align=center;fontSize=18;" parent="1" vertex="1">
          <mxGeometry x="180" y="400" width="135" height="75" as="geometry" />
        </mxCell>
        <mxCell id="z_DrBb2-2Ag20W_lwLPA-42" style="rounded=0;orthogonalLoop=1;jettySize=auto;html=1;endArrow=none;endFill=0;fontSize=18;" parent="1" source="z_DrBb2-2Ag20W_lwLPA-3" target="z_DrBb2-2Ag20W_lwLPA-36" edge="1">
          <mxGeometry relative="1" as="geometry">
            <mxPoint x="592" y="520" as="sourcePoint" />
            <mxPoint x="630" y="425" as="targetPoint" />
          </mxGeometry>
        </mxCell>
        <mxCell id="z_DrBb2-2Ag20W_lwLPA-44" style="rounded=0;orthogonalLoop=1;jettySize=auto;html=1;endArrow=none;endFill=0;fontSize=18;" parent="1" source="z_DrBb2-2Ag20W_lwLPA-2" target="z_DrBb2-2Ag20W_lwLPA-40" edge="1">
          <mxGeometry relative="1" as="geometry">
            <mxPoint x="520" y="526" as="sourcePoint" />
            <mxPoint x="313" y="443" as="targetPoint" />
          </mxGeometry>
        </mxCell>
        <mxCell id="z_DrBb2-2Ag20W_lwLPA-45" style="rounded=0;orthogonalLoop=1;jettySize=auto;html=1;endArrow=none;endFill=0;fontSize=18;" parent="1" source="z_DrBb2-2Ag20W_lwLPA-40" target="z_DrBb2-2Ag20W_lwLPA-4" edge="1">
          <mxGeometry relative="1" as="geometry">
            <mxPoint x="520" y="726" as="sourcePoint" />
            <mxPoint x="313" y="643" as="targetPoint" />
          </mxGeometry>
        </mxCell>
        <mxCell id="z_DrBb2-2Ag20W_lwLPA-46" value="Tartalmazza" style="shape=rhombus;perimeter=rhombusPerimeter;whiteSpace=wrap;html=1;align=center;fontSize=18;" parent="1" vertex="1">
          <mxGeometry x="-27.5" y="275" width="135" height="75" as="geometry" />
        </mxCell>
        <mxCell id="z_DrBb2-2Ag20W_lwLPA-47" style="rounded=0;orthogonalLoop=1;jettySize=auto;html=1;endArrow=none;endFill=0;fontSize=18;" parent="1" source="z_DrBb2-2Ag20W_lwLPA-46" target="z_DrBb2-2Ag20W_lwLPA-4" edge="1">
          <mxGeometry relative="1" as="geometry">
            <mxPoint x="30" y="460" as="sourcePoint" />
            <mxPoint x="-46" y="620" as="targetPoint" />
          </mxGeometry>
        </mxCell>
        <mxCell id="z_DrBb2-2Ag20W_lwLPA-48" style="rounded=0;orthogonalLoop=1;jettySize=auto;html=1;endArrow=none;endFill=0;startArrow=classic;startFill=1;endSize=11;startSize=12;fontSize=18;" parent="1" source="z_DrBb2-2Ag20W_lwLPA-1" target="z_DrBb2-2Ag20W_lwLPA-46" edge="1">
          <mxGeometry relative="1" as="geometry">
            <mxPoint x="232" y="296" as="sourcePoint" />
            <mxPoint x="-26" y="440" as="targetPoint" />
          </mxGeometry>
        </mxCell>
        <mxCell id="z_DrBb2-2Ag20W_lwLPA-50" value="Létrehozza" style="shape=rhombus;perimeter=rhombusPerimeter;whiteSpace=wrap;html=1;align=center;fontSize=18;" parent="1" vertex="1">
          <mxGeometry x="180" y="-30" width="135" height="75" as="geometry" />
        </mxCell>
        <mxCell id="z_DrBb2-2Ag20W_lwLPA-52" value="Létrehozza" style="shape=rhombus;perimeter=rhombusPerimeter;whiteSpace=wrap;html=1;align=center;fontSize=18;" parent="1" vertex="1">
          <mxGeometry x="600" y="50" width="135" height="75" as="geometry" />
        </mxCell>
        <mxCell id="z_DrBb2-2Ag20W_lwLPA-53" value="Létrehozza" style="shape=rhombus;perimeter=rhombusPerimeter;whiteSpace=wrap;html=1;align=center;fontSize=18;" parent="1" vertex="1">
          <mxGeometry x="417.5" y="112.5" width="135" height="75" as="geometry" />
        </mxCell>
        <mxCell id="z_DrBb2-2Ag20W_lwLPA-54" style="rounded=0;orthogonalLoop=1;jettySize=auto;html=1;endArrow=none;endFill=0;startArrow=classic;startFill=1;startSize=12;fontSize=18;" parent="1" source="z_DrBb2-2Ag20W_lwLPA-5" target="z_DrBb2-2Ag20W_lwLPA-50" edge="1">
          <mxGeometry relative="1" as="geometry">
            <mxPoint x="439" y="-30" as="sourcePoint" />
            <mxPoint x="412" y="83" as="targetPoint" />
          </mxGeometry>
        </mxCell>
        <mxCell id="z_DrBb2-2Ag20W_lwLPA-56" style="rounded=0;orthogonalLoop=1;jettySize=auto;html=1;endArrow=none;endFill=0;startSize=12;startArrow=classic;startFill=1;fontSize=18;" parent="1" source="z_DrBb2-2Ag20W_lwLPA-5" target="z_DrBb2-2Ag20W_lwLPA-52" edge="1">
          <mxGeometry relative="1" as="geometry">
            <mxPoint x="510" y="-1" as="sourcePoint" />
            <mxPoint x="346" y="23" as="targetPoint" />
          </mxGeometry>
        </mxCell>
        <mxCell id="z_DrBb2-2Ag20W_lwLPA-57" style="rounded=0;orthogonalLoop=1;jettySize=auto;html=1;endArrow=none;endFill=0;startArrow=classic;startFill=1;startSize=12;fontSize=18;" parent="1" source="z_DrBb2-2Ag20W_lwLPA-5" target="z_DrBb2-2Ag20W_lwLPA-53" edge="1">
          <mxGeometry relative="1" as="geometry">
            <mxPoint x="520" y="9" as="sourcePoint" />
            <mxPoint x="356" y="33" as="targetPoint" />
          </mxGeometry>
        </mxCell>
        <mxCell id="z_DrBb2-2Ag20W_lwLPA-58" style="rounded=0;orthogonalLoop=1;jettySize=auto;html=1;endArrow=none;endFill=0;fontSize=18;" parent="1" source="z_DrBb2-2Ag20W_lwLPA-50" target="z_DrBb2-2Ag20W_lwLPA-1" edge="1">
          <mxGeometry relative="1" as="geometry">
            <mxPoint x="530" y="19" as="sourcePoint" />
            <mxPoint x="366" y="43" as="targetPoint" />
          </mxGeometry>
        </mxCell>
        <mxCell id="z_DrBb2-2Ag20W_lwLPA-60" style="rounded=0;orthogonalLoop=1;jettySize=auto;html=1;endArrow=none;endFill=0;fontSize=18;" parent="1" source="z_DrBb2-2Ag20W_lwLPA-53" target="z_DrBb2-2Ag20W_lwLPA-2" edge="1">
          <mxGeometry relative="1" as="geometry">
            <mxPoint x="550" y="39" as="sourcePoint" />
            <mxPoint x="386" y="63" as="targetPoint" />
          </mxGeometry>
        </mxCell>
        <mxCell id="z_DrBb2-2Ag20W_lwLPA-61" style="rounded=0;orthogonalLoop=1;jettySize=auto;html=1;endArrow=none;endFill=0;fontSize=18;" parent="1" source="z_DrBb2-2Ag20W_lwLPA-52" target="z_DrBb2-2Ag20W_lwLPA-3" edge="1">
          <mxGeometry relative="1" as="geometry">
            <mxPoint x="560" y="49" as="sourcePoint" />
            <mxPoint x="396" y="73" as="targetPoint" />
          </mxGeometry>
        </mxCell>
        <mxCell id="iLw5BM9drtJKU77irky4-2" style="rounded=0;orthogonalLoop=1;jettySize=auto;html=1;endArrow=none;endFill=0;fontSize=18;" edge="1" parent="1" source="iLw5BM9drtJKU77irky4-1" target="z_DrBb2-2Ag20W_lwLPA-1">
          <mxGeometry relative="1" as="geometry" />
        </mxCell>
        <mxCell id="iLw5BM9drtJKU77irky4-1" value="Végösszeg" style="ellipse;whiteSpace=wrap;html=1;fontSize=18;" vertex="1" parent="1">
          <mxGeometry x="-100" y="170" width="120" height="80" as="geometry" />
        </mxCell>
        <mxCell id="iLw5BM9drtJKU77irky4-4" style="rounded=0;orthogonalLoop=1;jettySize=auto;html=1;endArrow=none;endFill=0;fontSize=18;" edge="1" parent="1" source="iLw5BM9drtJKU77irky4-5" target="z_DrBb2-2Ag20W_lwLPA-5">
          <mxGeometry relative="1" as="geometry">
            <mxPoint x="689" y="-30" as="targetPoint" />
          </mxGeometry>
        </mxCell>
        <mxCell id="iLw5BM9drtJKU77irky4-5" value="Admin" style="ellipse;whiteSpace=wrap;html=1;fontSize=18;" vertex="1" parent="1">
          <mxGeometry x="560" y="-160" width="120" height="80" as="geometry" />
        </mxCell>
        <mxCell id="iLw5BM9drtJKU77irky4-6" style="rounded=0;orthogonalLoop=1;jettySize=auto;html=1;endArrow=none;endFill=0;fontSize=18;" edge="1" parent="1" source="iLw5BM9drtJKU77irky4-7" target="iLw5BM9drtJKU77irky4-11">
          <mxGeometry relative="1" as="geometry">
            <mxPoint x="799" y="55" as="targetPoint" />
          </mxGeometry>
        </mxCell>
        <mxCell id="iLw5BM9drtJKU77irky4-7" value="Van profilképe" style="ellipse;whiteSpace=wrap;html=1;fontSize=18;" vertex="1" parent="1">
          <mxGeometry x="750" y="-180" width="120" height="80" as="geometry" />
        </mxCell>
        <mxCell id="iLw5BM9drtJKU77irky4-8" value="Profilkép" style="rounded=0;whiteSpace=wrap;html=1;fontSize=18;" vertex="1" parent="1">
          <mxGeometry x="850" y="-40" width="120" height="60" as="geometry" />
        </mxCell>
        <mxCell id="iLw5BM9drtJKU77irky4-11" value="Létrehozza" style="shape=rhombus;perimeter=rhombusPerimeter;whiteSpace=wrap;html=1;align=center;fontSize=18;" vertex="1" parent="1">
          <mxGeometry x="650" y="-47.5" width="135" height="75" as="geometry" />
        </mxCell>
        <mxCell id="iLw5BM9drtJKU77irky4-12" style="rounded=0;orthogonalLoop=1;jettySize=auto;html=1;endArrow=none;endFill=0;startArrow=classic;startFill=1;startSize=12;fontSize=18;" edge="1" parent="1" target="iLw5BM9drtJKU77irky4-11" source="z_DrBb2-2Ag20W_lwLPA-5">
          <mxGeometry relative="1" as="geometry">
            <mxPoint x="790" y="-70" as="sourcePoint" />
            <mxPoint x="576" y="-47" as="targetPoint" />
          </mxGeometry>
        </mxCell>
        <mxCell id="iLw5BM9drtJKU77irky4-13" style="rounded=0;orthogonalLoop=1;jettySize=auto;html=1;endArrow=none;endFill=0;fontSize=18;" edge="1" parent="1" source="iLw5BM9drtJKU77irky4-11" target="iLw5BM9drtJKU77irky4-8">
          <mxGeometry relative="1" as="geometry">
            <mxPoint x="770" y="-41" as="sourcePoint" />
            <mxPoint x="790" y="150" as="targetPoint" />
          </mxGeometry>
        </mxCell>
        <mxCell id="iLw5BM9drtJKU77irky4-14" value="Részt vesz" style="shape=rhombus;perimeter=rhombusPerimeter;whiteSpace=wrap;html=1;align=center;fontSize=18;" vertex="1" parent="1">
          <mxGeometry x="230.00000000000006" y="80" width="135" height="75" as="geometry" />
        </mxCell>
        <mxCell id="iLw5BM9drtJKU77irky4-15" style="rounded=0;orthogonalLoop=1;jettySize=auto;html=1;endArrow=none;endFill=0;fontSize=18;" edge="1" parent="1" target="iLw5BM9drtJKU77irky4-14" source="z_DrBb2-2Ag20W_lwLPA-2">
          <mxGeometry relative="1" as="geometry">
            <mxPoint x="524.79" y="163.7689362410522" as="sourcePoint" />
            <mxPoint x="347.51000000000005" y="188" as="targetPoint" />
          </mxGeometry>
        </mxCell>
        <mxCell id="iLw5BM9drtJKU77irky4-16" style="rounded=0;orthogonalLoop=1;jettySize=auto;html=1;endArrow=none;endFill=0;fontSize=18;" edge="1" parent="1" source="iLw5BM9drtJKU77irky4-14" target="z_DrBb2-2Ag20W_lwLPA-1">
          <mxGeometry relative="1" as="geometry">
            <mxPoint x="564.51" y="281" as="sourcePoint" />
            <mxPoint x="95" y="-70" as="targetPoint" />
          </mxGeometry>
        </mxCell>
        <mxCell id="iLw5BM9drtJKU77irky4-17" value="Fizetett" style="shape=rhombus;perimeter=rhombusPerimeter;whiteSpace=wrap;html=1;align=center;fontSize=18;" vertex="1" parent="1">
          <mxGeometry x="160" y="300" width="135" height="75" as="geometry" />
        </mxCell>
        <mxCell id="iLw5BM9drtJKU77irky4-18" style="rounded=0;orthogonalLoop=1;jettySize=auto;html=1;endArrow=none;endFill=0;fontSize=18;" edge="1" parent="1" source="iLw5BM9drtJKU77irky4-17" target="z_DrBb2-2Ag20W_lwLPA-1">
          <mxGeometry relative="1" as="geometry">
            <mxPoint x="457.56" y="246" as="sourcePoint" />
            <mxPoint x="160.00444444444435" y="-40" as="targetPoint" />
          </mxGeometry>
        </mxCell>
        <mxCell id="iLw5BM9drtJKU77irky4-19" style="rounded=0;orthogonalLoop=1;jettySize=auto;html=1;endArrow=none;endFill=0;startArrow=classic;startFill=1;endSize=11;startSize=12;fontSize=18;" edge="1" parent="1" target="iLw5BM9drtJKU77irky4-17" source="z_DrBb2-2Ag20W_lwLPA-2">
          <mxGeometry relative="1" as="geometry">
            <mxPoint x="615.56" y="208.5" as="sourcePoint" />
            <mxPoint x="209.56" y="400" as="targetPoint" />
          </mxGeometry>
        </mxCell>
        <mxCell id="iLw5BM9drtJKU77irky4-20" value="Pénznem" style="rounded=0;whiteSpace=wrap;html=1;fontSize=18;" vertex="1" parent="1">
          <mxGeometry x="-20" y="-170" width="120" height="60" as="geometry" />
        </mxCell>
        <mxCell id="iLw5BM9drtJKU77irky4-21" value="Pénzneme" style="shape=rhombus;perimeter=rhombusPerimeter;whiteSpace=wrap;html=1;align=center;fontSize=18;" vertex="1" parent="1">
          <mxGeometry x="-27.5" y="-55" width="135" height="75" as="geometry" />
        </mxCell>
        <mxCell id="iLw5BM9drtJKU77irky4-22" style="rounded=0;orthogonalLoop=1;jettySize=auto;html=1;endArrow=classic;endFill=1;startSize=8;endSize=11;fontSize=18;" edge="1" parent="1" source="iLw5BM9drtJKU77irky4-21" target="iLw5BM9drtJKU77irky4-20">
          <mxGeometry relative="1" as="geometry">
            <mxPoint x="-73.65" y="226" as="sourcePoint" />
            <mxPoint x="-331.65" y="370" as="targetPoint" />
          </mxGeometry>
        </mxCell>
        <mxCell id="iLw5BM9drtJKU77irky4-23" style="rounded=0;orthogonalLoop=1;jettySize=auto;html=1;endArrow=none;endFill=0;startArrow=none;startFill=0;endSize=11;startSize=12;fontSize=18;" edge="1" parent="1" target="iLw5BM9drtJKU77irky4-21" source="z_DrBb2-2Ag20W_lwLPA-1">
          <mxGeometry relative="1" as="geometry">
            <mxPoint x="40.0021739130435" y="-20" as="sourcePoint" />
            <mxPoint x="-321.65" y="380" as="targetPoint" />
          </mxGeometry>
        </mxCell>
        <mxCell id="iLw5BM9drtJKU77irky4-24" value="Név" style="ellipse;whiteSpace=wrap;html=1;fontSize=18;" vertex="1" parent="1">
          <mxGeometry x="-20" y="-280" width="120" height="80" as="geometry" />
        </mxCell>
        <mxCell id="iLw5BM9drtJKU77irky4-25" value="Szimbólum" style="ellipse;whiteSpace=wrap;html=1;fontSize=18;" vertex="1" parent="1">
          <mxGeometry x="140" y="-220" width="120" height="80" as="geometry" />
        </mxCell>
        <mxCell id="iLw5BM9drtJKU77irky4-26" style="rounded=0;orthogonalLoop=1;jettySize=auto;html=1;endArrow=none;endFill=0;fontSize=18;" edge="1" parent="1" target="iLw5BM9drtJKU77irky4-25" source="iLw5BM9drtJKU77irky4-20">
          <mxGeometry relative="1" as="geometry">
            <mxPoint x="-291" y="280" as="sourcePoint" />
            <mxPoint x="-491" y="420" as="targetPoint" />
          </mxGeometry>
        </mxCell>
        <mxCell id="iLw5BM9drtJKU77irky4-27" style="rounded=0;orthogonalLoop=1;jettySize=auto;html=1;endArrow=none;endFill=0;fontSize=18;" edge="1" parent="1" target="iLw5BM9drtJKU77irky4-24" source="iLw5BM9drtJKU77irky4-20">
          <mxGeometry relative="1" as="geometry">
            <mxPoint x="-337" y="280" as="sourcePoint" />
            <mxPoint x="-481" y="430" as="targetPoint" />
          </mxGeometry>
        </mxCell>
        <mxCell id="iLw5BM9drtJKU77irky4-28" value="Id" style="ellipse;whiteSpace=wrap;html=1;fontSize=18;" vertex="1" parent="1">
          <mxGeometry x="-180" y="-220" width="120" height="80" as="geometry" />
        </mxCell>
        <mxCell id="iLw5BM9drtJKU77irky4-29" style="rounded=0;orthogonalLoop=1;jettySize=auto;html=1;endArrow=none;endFill=0;fontSize=18;" edge="1" parent="1" target="iLw5BM9drtJKU77irky4-28" source="iLw5BM9drtJKU77irky4-20">
          <mxGeometry relative="1" as="geometry">
            <mxPoint x="-340" y="310" as="sourcePoint" />
            <mxPoint x="-196" y="286" as="targetPoint" />
          </mxGeometry>
        </mxCell>
        <mxCell id="iLw5BM9drtJKU77irky4-32" value="Mennyit fizetett" style="ellipse;whiteSpace=wrap;html=1;fontSize=18;" vertex="1" parent="1">
          <mxGeometry x="195" y="180" width="120" height="80" as="geometry" />
        </mxCell>
        <mxCell id="iLw5BM9drtJKU77irky4-33" style="rounded=0;orthogonalLoop=1;jettySize=auto;html=1;endArrow=none;endFill=0;fontSize=18;" edge="1" parent="1" target="iLw5BM9drtJKU77irky4-32" source="iLw5BM9drtJKU77irky4-14">
          <mxGeometry relative="1" as="geometry">
            <mxPoint x="160" y="175" as="sourcePoint" />
            <mxPoint x="264" y="-79" as="targetPoint" />
          </mxGeometry>
        </mxCell>
      </root>
    </mxGraphModel>
  </diagram>
</mxfile>
